<?xml version="1.0" standalone="no"?>
<!DOCTYPE svg PUBLIC "-//W3C//DTD SVG 20010904//EN"
 "http://www.w3.org/TR/2001/REC-SVG-20010904/DTD/svg10.dtd">
<svg version="1.0" xmlns="http://www.w3.org/2000/svg"
 width="54.000000pt" height="54.000000pt" viewBox="0 0 54.000000 54.000000"
 preserveAspectRatio="xMidYMid meet">

<g transform="translate(0.000000,54.000000) scale(0.100000,-0.100000)"
fill="#000000" stroke="none">
<path d="M140 480 l-125 -58 0 -152 0 -152 128 -58 127 -58 128 58 127 58 0
152 0 152 -129 59 c-71 32 -130 59 -130 58 -1 0 -57 -27 -126 -59z m173 23
c32 -9 14 -23 -96 -73 -106 -48 -109 -49 -139 -34 -17 9 -26 19 -22 24 20 19
210 99 224 93 8 -3 23 -8 33 -10z m67 -33 c10 -6 -11 -21 -85 -55 -99 -46
-145 -59 -142 -40 1 8 187 101 207 104 3 0 12 -3 20 -9z m82 -36 c17 -9 26
-19 22 -24 -5 -5 -55 -29 -111 -54 l-102 -46 -43 19 -43 19 70 32 c176 81 162
77 207 54z m-392 -49 c23 -12 30 -22 30 -45 0 -19 8 -34 22 -44 32 -23 48 -20
48 9 0 30 8 31 55 8 l35 -17 0 -134 c0 -155 15 -146 -136 -76 l-94 43 0 136
c0 74 2 135 5 135 4 0 19 -7 35 -15z m440 -120 l0 -136 -94 -43 c-151 -70
-136 -79 -136 77 l0 134 108 51 c59 28 110 51 115 51 4 1 7 -60 7 -134z m-350
54 c0 -32 -34 -20 -38 14 -3 26 -2 28 17 17 12 -6 21 -20 21 -31z"/>
<path d="M46 203 c-14 -14 -4 -53 16 -67 36 -25 58 -20 58 12 0 22 -7 32 -34
45 -19 8 -37 13 -40 10z m54 -49 c0 -11 -6 -14 -16 -10 -9 3 -18 6 -20 6 -2 0
-4 9 -4 20 0 18 3 19 20 10 11 -6 20 -18 20 -26z"/>
</g>
</svg>
